<svg xmlns="http://www.w3.org/2000/svg" width="157.591" height="162.639" viewBox="0 0 157.591 162.639"><defs><style>.a,.b{opacity:0.05;}.b,.c{fill:#f11b5d;}.d{fill:#9e0434;}.e{fill:#636363;}</style></defs><g transform="translate(-880.717 -221.256)"><path class="a" d="M39.949,6.939C35.193,6.241,6.724-5.011,1.113,21.355S12.834,46.925,14.627,69.3s18.578,32.556,34.342,29.822S75.926,88.747,95.621,82.662s31.551-22,24.753-34.849-3.856-17.993-6.355-27.734-13.5-21.155-26.7-20S65.71,14.756,60.613,14.5C49.814,13.945,39.949,6.939,39.949,6.939Z" transform="matrix(0.799, -0.602, 0.602, 0.799, 880.717, 304.386)"/><path class="b" d="M34.705,5.9C26.44,3.831,4.876,6.783.813,26.254S9.137,42.57,11.072,63.266s18.106,30.281,33.17,27.919,25.707-9.306,44.5-14.724S112.9,59.439,112.1,44.514s-3.867-16.668-6.355-25.7S92.613-.875,79.985.057,67.521,4.582,59.9,6.614,42.971,7.968,34.705,5.9Z" transform="translate(912.042 247.91) rotate(16)"/><g transform="translate(905.002 242.993) rotate(16)"><path class="c" d="M103.2.277,1.538,47.05A2.642,2.642,0,0,0,2,52.013l21.583,5.4L36.149,80.379a2.642,2.642,0,0,0,4.1.683L53.059,68.879,86.867,79.536a2.642,2.642,0,0,0,3.368-1.925L107.316,3.624A2.953,2.953,0,0,0,103.2.277Z" transform="translate(0 0)"/><path class="d" d="M80.667.944A.553.553,0,0,0,79.955.1L0,55.41H0L12.565,78.375a2.618,2.618,0,0,0,1.735,1.3l6.016-16.294Z" transform="translate(23.584 2.004)"/></g><path d="M1.145-62.459c1.382-1.006,55.939-22.147,55.939-22.147a4.492,4.492,0,0,1,4.492,4.492v63.672L12.143,12.071l-5.67,7.652c-2.481,0-5.329-3.379-5.329-5.86l-1.2-70.976C-.051-59.594-.237-61.453,1.145-62.459Z" transform="translate(917.143 305.862)"/><path class="e" d="M3.8,4.745,47.441-12.747a6.365,6.365,0,0,1,6.365,6.365V9.53c0,3.515-4.521,5.692-4.521,5.692L6.365,32.59A6.365,6.365,0,0,1,0,26.225V10.313C0,6.8,3.8,4.745,3.8,4.745Z" transform="translate(921.609 240.936)"/><path class="e" d="M3.361-19.5,57.274-42.17v4.515L3.539-14.522Z" transform="translate(917.599 304.953)"/><path class="e" d="M4.008-19.818,57.6-43.78v4.515L4.186-14.836Z" transform="translate(917.599 315.953)"/><path class="e" d="M4.494-19.78,57.6-43.9v4.515L4.672-14.8Z" transform="translate(917.599 325.953)"/></g></svg>