<svg xmlns="http://www.w3.org/2000/svg" width="19.521" height="19.52" viewBox="0 0 19.521 19.52"><path d="M14.133,0H5.387A5.393,5.393,0,0,0,0,5.387v8.746A5.393,5.393,0,0,0,5.387,19.52h8.747a5.393,5.393,0,0,0,5.387-5.387V5.387A5.393,5.393,0,0,0,14.133,0Zm3.655,14.133a3.659,3.659,0,0,1-3.655,3.655H5.387a3.659,3.659,0,0,1-3.655-3.655V5.387A3.659,3.659,0,0,1,5.387,1.732h8.747a3.659,3.659,0,0,1,3.655,3.655v8.746Z"/><path d="M46,40.97A5.03,5.03,0,1,0,51.028,46,5.036,5.036,0,0,0,46,40.97ZM46,49.3A3.3,3.3,0,1,1,49.3,46,3.3,3.3,0,0,1,46,49.3Z" transform="translate(-36.238 -36.24)"/><path d="M120.191,28.251a1.269,1.269,0,1,0,.9.372A1.275,1.275,0,0,0,120.191,28.251Z" transform="translate(-105.19 -24.989)"/></svg>