<svg xmlns="http://www.w3.org/2000/svg" width="20.428" height="19.52" viewBox="0 0 20.428 19.52"><g transform="translate(0)"><path d="M20.428,21.526v7.552H16.05V22.032c0-1.77-.633-2.978-2.218-2.978a2.4,2.4,0,0,0-2.247,1.6,3,3,0,0,0-.145,1.068v7.356H7.06s.059-11.935,0-13.171h4.38v1.867c-.009.014-.02.029-.029.043h.029v-.043A4.349,4.349,0,0,1,15.387,15.6C18.268,15.6,20.428,17.48,20.428,21.526ZM2.478,9.558A2.282,2.282,0,1,0,2.42,14.11H2.45a2.283,2.283,0,1,0,.029-4.552ZM.26,29.078H4.638V15.907H.26Z" transform="translate(0 -9.558)"/></g></svg>