<svg xmlns="http://www.w3.org/2000/svg" width="33.945" height="44.993" viewBox="0 0 33.945 44.993"><defs><style>.a{fill:#f11b5d;}</style></defs><g transform="translate(-14.5)"><path class="a" d="M31.453,0A16.942,16.942,0,0,0,14.5,16.953c0,4.876,2.438,9.3,4.838,13.372A71.1,71.1,0,0,0,29.853,44.307a2.255,2.255,0,0,0,3.238,0A65.4,65.4,0,0,0,42.5,32.5c2.857-4.61,5.943-9.944,5.943-15.544A17.024,17.024,0,0,0,31.453,0Zm0,26.782A10.286,10.286,0,1,1,41.74,16.5,10.292,10.292,0,0,1,31.453,26.782Z"/></g></svg>