<svg xmlns="http://www.w3.org/2000/svg" width="24.02" height="19.52" viewBox="0 0 24.02 19.52"><g transform="translate(0)"><path d="M24.021,50.267a9.854,9.854,0,0,1-2.83.776,4.943,4.943,0,0,0,2.167-2.726,9.866,9.866,0,0,1-3.129,1.2,4.933,4.933,0,0,0-8.4,4.495A13.991,13.991,0,0,1,1.673,48.858,4.933,4.933,0,0,0,3.2,55.437a4.908,4.908,0,0,1-2.232-.616c0,.021,0,.041,0,.062a4.931,4.931,0,0,0,3.953,4.832,4.933,4.933,0,0,1-2.226.084,4.933,4.933,0,0,0,4.6,3.422,9.887,9.887,0,0,1-6.12,2.11A9.974,9.974,0,0,1,0,65.262a13.947,13.947,0,0,0,7.554,2.214A13.926,13.926,0,0,0,21.576,53.455q0-.32-.014-.638A10.012,10.012,0,0,0,24.021,50.267Z" transform="translate(-0.001 -47.956)"/></g></svg>